<svg width="131" height="40" viewBox="0 0 131 40" fill="none" xmlns="http://www.w3.org/2000/svg">
<path d="M0.924194 20.1155C0.924194 30.7434 9.70373 39.5229 20.3316 39.5229C30.9595 39.5229 39.739 30.7434 39.739 20.1155C39.739 9.48763 30.9595 0.823608 20.3316 0.823608C9.70373 0.823608 0.924194 9.48763 0.924194 20.1155ZM27.4939 29.1261C22.9886 26.3536 17.2126 25.6605 10.5124 27.1622C8.89509 27.3933 8.66405 25.0829 10.0503 24.8518C17.4436 23.119 23.6817 23.9277 28.7646 27.0467C30.0353 27.8554 28.7646 29.8192 27.4939 29.1261ZM29.4577 23.9277C24.2593 20.6931 16.2884 19.7689 10.1658 21.6173C8.20197 22.1949 7.50885 19.1913 9.35717 18.7293C16.4039 16.6499 25.0679 17.6896 31.075 21.3862C32.6923 22.4259 31.075 24.9673 29.4577 23.9277ZM9.24165 15.7257C7.27781 16.4188 6.00709 13.0688 8.20197 12.2601C15.0177 10.1808 26.5697 10.5273 33.732 14.8016C35.6958 15.8412 33.8475 19.0758 31.7681 17.9206C25.53 14.224 15.1332 13.8774 9.24165 15.7257ZM53.0238 26.2381C51.06 26.2381 49.2117 25.5449 47.5944 23.9277C47.4789 23.9277 47.4789 24.0432 47.4789 24.0432L45.6305 26.2381C45.515 26.3536 45.515 26.4691 45.6305 26.5846C47.7099 28.433 50.2514 29.3571 53.0238 29.3571C56.9515 29.3571 59.3775 27.1622 59.3775 23.9277C59.3775 21.1552 57.6446 19.6534 53.6014 18.6137C50.2514 17.8051 49.6738 17.2275 49.6738 16.0723C49.6738 14.9171 50.829 14.224 52.3307 14.224C53.8325 14.224 55.2187 14.8016 56.836 15.9568C56.836 15.9568 56.9515 16.0723 57.067 16.0723C57.1826 16.0723 57.1826 15.9568 57.1826 15.9568L58.7999 13.6464C58.9154 13.5308 58.9154 13.5308 58.7999 13.4153C56.9515 11.9136 54.7566 11.1049 52.3307 11.1049C48.7496 11.1049 46.2081 13.2998 46.2081 16.4188C46.2081 19.7689 48.5185 20.8086 52.2152 21.7328C55.4498 22.4259 55.9118 23.119 55.9118 24.2742C55.9118 25.5449 54.7566 26.2381 53.0238 26.2381ZM63.9983 17.343V15.8412C63.9983 15.7257 63.8827 15.6102 63.7672 15.6102H60.7637C60.6482 15.6102 60.5327 15.7257 60.5327 15.8412V32.8227C60.5327 32.9382 60.6482 33.0538 60.7637 33.0538H63.7672C63.8827 33.0538 63.9983 32.9382 63.9983 32.8227V27.5088C65.1535 28.7795 66.4242 29.3571 68.157 29.3571C71.276 29.3571 74.3951 26.9312 74.3951 22.3104C74.3951 17.6896 71.276 15.3792 68.157 15.3792C66.4242 15.3792 65.1535 15.9568 63.9983 17.343ZM67.4639 26.3536C65.3845 26.3536 63.8827 24.6208 63.8827 22.3104C63.8827 20 65.3845 18.3827 67.4639 18.3827C69.5432 18.3827 70.9295 20 70.9295 22.3104C70.9295 24.6208 69.5432 26.3536 67.4639 26.3536ZM75.3193 22.4259C75.3193 26.3536 78.4383 29.3571 82.4815 29.3571C86.5247 29.3571 89.6438 26.2381 89.6438 22.3104C89.6438 18.3827 86.6402 15.3792 82.597 15.3792C78.5538 15.3792 75.3193 18.4982 75.3193 22.4259ZM78.7849 22.3104C78.7849 20 80.2866 18.3827 82.4815 18.3827C84.6764 18.3827 86.2937 20.1155 86.2937 22.4259C86.2937 24.7363 84.7919 26.3536 82.597 26.3536C80.4021 26.3536 78.7849 24.6208 78.7849 22.3104ZM94.9577 15.6102V12.2601C94.9577 12.1446 94.9577 12.0291 94.8422 12.0291H91.8387C91.7231 12.0291 91.6076 12.1446 91.6076 12.2601V15.6102H90.1059C89.9903 15.6102 89.8748 15.7257 89.8748 15.8412V18.3827C89.8748 18.4982 89.9903 18.6137 90.1059 18.6137H91.6076V25.3139C91.6076 27.9709 92.8783 29.3571 95.5353 29.3571C96.575 29.3571 97.6147 29.1261 98.4233 28.664C98.5388 28.664 98.5388 28.5485 98.5388 28.433V26.007C98.5388 25.8915 98.5388 25.776 98.4233 25.776H98.1923C97.6147 26.1226 96.9215 26.2381 96.3439 26.2381C95.4198 26.2381 94.9577 25.776 94.9577 24.8518V18.6137H98.4233C98.5388 18.6137 98.6544 18.4982 98.6544 18.3827V15.8412C98.6544 15.7257 98.5388 15.6102 98.4233 15.6102H94.9577ZM109.86 15.2636C109.86 13.9929 110.322 13.5308 111.362 13.5308C111.939 13.5308 112.517 13.5308 113.094 13.7619H113.21C113.21 13.7619 113.325 13.6464 113.325 13.5308V11.1049C113.325 10.9894 113.325 10.8739 113.21 10.8739C112.632 10.6428 111.824 10.5273 110.668 10.5273C107.896 10.5273 106.51 12.1446 106.51 15.0326V15.6102H105.008C104.892 15.6102 104.777 15.7257 104.777 15.8412V18.3827C104.777 18.4982 104.892 18.6137 105.008 18.6137H106.51V28.895C106.51 29.0106 106.625 29.1261 106.741 29.1261H109.744C109.86 29.1261 109.86 29.0106 109.86 28.895V18.6137H112.748L117.022 28.895C116.56 29.9347 116.098 30.1658 115.405 30.1658C114.827 30.1658 114.25 30.0502 113.672 29.7037H113.556L113.441 29.8192L112.401 32.0141C112.401 32.1296 112.401 32.3606 112.517 32.3606C113.556 32.9382 114.481 33.1693 115.636 33.1693C117.831 33.1693 119.101 32.1296 120.141 29.3571L125.34 15.9568V15.7257C125.34 15.6102 125.224 15.6102 125.108 15.6102H121.989C121.874 15.6102 121.874 15.7257 121.874 15.8412L118.639 24.8518L115.174 15.8412C115.174 15.7257 115.058 15.6102 114.943 15.6102H109.86V15.2636ZM100.272 15.6102C100.156 15.6102 100.041 15.7257 100.041 15.8412V28.895C100.041 29.0106 100.156 29.1261 100.272 29.1261H103.275C103.391 29.1261 103.391 29.0106 103.391 28.895V15.8412C103.391 15.7257 103.391 15.6102 103.275 15.6102H100.272ZM99.5785 11.798C99.5785 12.9532 100.618 13.9929 101.773 13.9929C102.929 13.9929 103.853 12.9532 103.853 11.798C103.853 10.6428 102.929 9.71867 101.773 9.71867C100.618 9.71867 99.5785 10.6428 99.5785 11.798ZM127.881 19.7689C129.036 19.7689 130.076 18.8448 130.076 17.6896C130.076 16.5344 129.036 15.6102 127.881 15.6102C126.726 15.6102 125.802 16.5344 125.802 17.6896C125.802 18.8448 126.726 19.7689 127.881 19.7689ZM127.881 15.8412C128.921 15.8412 129.845 16.6499 129.845 17.6896C129.845 18.7293 128.921 19.5379 127.881 19.5379C126.841 19.5379 126.033 18.7293 126.033 17.6896C126.033 16.6499 126.841 15.8412 127.881 15.8412ZM128.343 17.9206C128.69 17.8051 128.921 17.5741 128.921 17.2275C128.921 16.7654 128.459 16.5344 127.996 16.5344H127.072V18.7293H127.534V18.0361H127.996L128.459 18.7293H129.036L128.343 17.9206ZM127.996 16.8809C128.228 16.8809 128.459 16.9964 128.459 17.2275C128.459 17.4585 128.228 17.574 127.996 17.574H127.534V16.8809H127.996Z" fill="white"/>
</svg>
